<svg xmlns="http://www.w3.org/2000/svg" width="111.582" height="183.467" viewBox="0 0 111.582 183.467">
  <g id="Group_662" data-name="Group 662" transform="translate(-11.917 -11.181)">
    <rect id="Rectangle_292" data-name="Rectangle 292" width="83.934" height="180.549" transform="translate(13.613 13.599)" fill="#fff" stroke="#707070" stroke-width="1"/>
    <rect id="Rectangle_298" data-name="Rectangle 298" width="23.344" height="180.549" transform="translate(97.547 13.599)" fill="#fff" stroke="#707070" stroke-width="1"/>
    <path id="Path_9525" data-name="Path 9525" d="M764.336,1164.35v-1.013h8.614V1150.46h1.031v12.877h11.934V1150.46h1.035v12.877h11.932V1150.46h1.037v12.877h11.932V1150.46h1.035v12.877h11.932V1150.46h1.035v12.877h11.929V1150.46h1.036v12.877h9.452v1.013h-9.452v15.879h9.452v1.018h-9.452v15.878h9.452v1.017h-9.452v15.885h9.452v1.014h-9.452v15.88h9.452v1.014h-9.452v15.883h9.452v1.014h-9.452v15.882h9.452v1.014h-9.452v15.879h9.452v1.018h-9.452V1298.5h9.452v1.017h-9.452V1315.4h9.452v1.014h-9.452v11.6h-1.036v-11.6H825.852v11.6h-1.035v-11.6H812.885v11.6h-1.035v-11.6H799.919v11.6h-1.037v-11.6H786.95v11.6h-1.035v-11.6H773.981v11.6H772.95v-11.6h-8.614V1315.4h8.614v-15.882h-8.614V1298.5h8.614v-15.879h-8.614v-1.018h8.614v-15.879h-8.614v-1.014h8.614v-15.882h-8.614v-1.014h8.614v-15.883h-8.614v-1.014h8.614v-15.88h-8.614v-1.014h8.614v-15.885h-8.614v-1.017h8.614v-15.878h-8.614v-1.018h8.614V1164.35ZM825.852,1315.4h11.929v-15.882H825.852Zm0-16.9h11.929v-15.879H825.852Zm0-16.9h11.929v-15.879H825.852Zm0-16.893h11.929v-15.882H825.852Zm0-16.9h11.929v-15.883H825.852Zm0-16.9h11.929v-15.88H825.852Zm0-16.895h11.929v-15.885H825.852Zm0-16.9h11.929v-15.878H825.852Zm0-16.9h11.929V1164.35H825.852ZM812.885,1315.4h11.932v-15.882H812.885Zm0-16.9h11.932v-15.879H812.885Zm0-16.9h11.932v-15.879H812.885Zm0-16.893h11.932v-15.882H812.885Zm0-16.9h11.932v-15.883H812.885Zm0-16.9h11.932v-15.88H812.885Zm0-16.895h11.932v-15.885H812.885Zm0-16.9h11.932v-15.878H812.885Zm0-16.9h11.932V1164.35H812.885ZM799.919,1315.4h11.932v-15.882H799.919Zm0-16.9h11.932v-15.879H799.919Zm0-16.9h11.932v-15.879H799.919Zm0-16.893h11.932v-15.882H799.919Zm0-16.9h11.932v-15.883H799.919Zm0-16.9h11.932v-15.88H799.919Zm0-16.895h11.932v-15.885H799.919Zm0-16.9h11.932v-15.878H799.919Zm0-16.9h11.932V1164.35H799.919ZM786.95,1315.4h11.932v-15.882H786.95Zm0-16.9h11.932v-15.879H786.95Zm0-16.9h11.932v-15.879H786.95Zm0-16.893h11.932v-15.882H786.95Zm0-16.9h11.932v-15.883H786.95Zm0-16.9h11.932v-15.88H786.95Zm0-16.895h11.932v-15.885H786.95Zm0-16.9h11.932v-15.878H786.95Zm0-16.9h11.932V1164.35H786.95ZM773.981,1315.4h11.934v-15.882H773.981Zm0-16.9h11.934v-15.879H773.981Zm0-16.9h11.934v-15.879H773.981Zm0-16.893h11.934v-15.882H773.981Zm0-16.9h11.934v-15.883H773.981Zm0-16.9h11.934v-15.88H773.981Zm0-16.895h11.934v-15.885H773.981Zm0-16.9h11.934v-15.878H773.981Zm0-16.9h11.934V1164.35H773.981Z" transform="translate(-750.723 -1134.108)" fill="#a8a8a8"/>
    <rect id="Rectangle_299" data-name="Rectangle 299" width="89.447" height="4.774" transform="translate(12.417 11.681)" fill="#fff" stroke="#707070" stroke-width="1"/>
    <rect id="Rectangle_300" data-name="Rectangle 300" width="21.135" height="4.774" transform="translate(101.864 11.681)" fill="#fff" stroke="#707070" stroke-width="1"/>
  </g>
</svg>
