<svg xmlns="http://www.w3.org/2000/svg" width="129.491" height="494.617" viewBox="0 0 129.491 494.617">
  <g id="Group_651" data-name="Group 651" transform="translate(0.5 1.243)">
    <path id="Path_9515" data-name="Path 9515" d="M887.513,1356.1h97.312V863.222L887.513,964.561Z" transform="translate(-887.513 -863.222)" fill="#fff" stroke="#707070" stroke-width="1"/>
    <rect id="Rectangle_221" data-name="Rectangle 221" width="31.18" height="492.875" transform="translate(97.312)" fill="none" stroke="#707070" stroke-width="1"/>
    <path id="Path_9516" data-name="Path 9516" d="M887.513,966.167V964.33h4.674v-6.263l1.845-1.917v8.18h6.092V949.8l1.846-1.921V964.33h6.094V946.679h-4.945l1.772-1.843h3.173v-3.3l1.847-1.923v5.223H916V933.27l1.846-1.921v13.487h6.092V927.193h-2.106l1.772-1.839h.334V925l1.845-1.919v2.272h6.092v-8.62l1.845-1.921v10.541h6.1V908.468l2.5-2.6h5.434V900.2l1.843-1.919v7.582h6.1V891.93l1.846-1.917v15.852h6.09v-22.2l1.846-1.917v24.115h6.088V875.4l1.841-1.919v32.384h6.1V867.133l1.845-1.921v40.652h3.475v1.843h-3.475v17.647h3.475v1.839h-3.475v17.643h3.475v1.843h-3.475V964.33h3.475v1.837h-3.475v17.645h3.475v1.843h-3.475V1003.3h3.475v1.843h-3.475v17.643h3.475v1.843h-3.475v17.645h3.475v1.839h-3.475v17.649h3.475v1.841h-3.475v17.647h3.475v1.843h-3.475v17.64h3.475v1.847h-3.475v17.645h3.475v1.841h-3.475v17.643h3.475v1.845h-3.475V1159.2h3.475v1.841h-3.475v17.649h3.475v1.834h-3.475v17.65h3.475v1.843h-3.475v17.641h3.475v1.841h-3.475v17.642h3.475v1.846h-3.475V1354.47H979.5V1238.985h-6.1V1354.47h-1.841V1238.985h-6.088V1354.47h-1.846V1238.985h-6.09V1354.47h-1.846V1238.985h-6.1V1354.47h-1.843V1238.985h-6.094V1354.47h-1.843V1238.985h-6.1V1354.47h-1.845V1238.985h-6.092V1354.47h-1.845V1238.985h-6.092V1354.47H916V1238.985h-6.09V1354.47h-1.847V1238.985H901.97V1354.47h-1.846V1238.985h-6.092V1354.47h-1.845V1238.985h-4.674v-1.846h4.674V1219.5h-4.674v-1.841h4.674v-17.641h-4.674v-1.843h4.674v-17.65h-4.674v-1.834h4.674v-17.649h-4.674V1159.2h4.674v-17.643h-4.674v-1.845h4.674v-17.643h-4.674v-1.841h4.674V1102.58h-4.674v-1.847h4.674v-17.64h-4.674v-1.843h4.674V1063.6h-4.674v-1.841h4.674v-17.649h-4.674v-1.839h4.674v-17.645h-4.674v-1.843h4.674v-17.643h-4.674V1003.3h4.674V985.655h-4.674v-1.843h4.674V966.167ZM973.4,1237.139h6.1V1219.5h-6.1Zm0-19.483h6.1v-17.641h-6.1Zm0-19.485h6.1v-17.65h-6.1Zm0-19.484h6.1v-17.649h-6.1Zm0-19.49h6.1v-17.643h-6.1Zm0-19.488h6.1v-17.643h-6.1Zm0-19.484h6.1V1102.58h-6.1Zm0-19.492h6.1v-17.64h-6.1Zm0-19.483h6.1V1063.6h-6.1Zm0-19.488h6.1v-17.649h-6.1Zm0-19.488h6.1v-17.645h-6.1Zm0-19.488h6.1v-17.643h-6.1Zm0-19.486h6.1V985.655h-6.1Zm0-19.488h6.1V966.167h-6.1Zm0-19.483h6.1V946.679h-6.1Zm0-19.493h6.1V927.193h-6.1Zm0-19.482h6.1V907.707h-6.1Zm-7.929,311.785h6.088V1219.5h-6.088Zm0-19.483h6.088v-17.641h-6.088Zm0-19.485h6.088v-17.65h-6.088Zm0-19.484h6.088v-17.649h-6.088Zm0-19.49h6.088v-17.643h-6.088Zm0-19.488h6.088v-17.643h-6.088Zm0-19.484h6.088V1102.58h-6.088Zm0-19.492h6.088v-17.64h-6.088Zm0-19.483h6.088V1063.6h-6.088Zm0-19.488h6.088v-17.649h-6.088Zm0-19.488h6.088v-17.645h-6.088Zm0-19.488h6.088v-17.643h-6.088Zm0-19.486h6.088V985.655h-6.088Zm0-19.488h6.088V966.167h-6.088Zm0-19.483h6.088V946.679h-6.088Zm0-19.493h6.088V927.193h-6.088Zm0-19.482h6.088V907.707h-6.088Zm-7.937,311.785h6.09V1219.5h-6.09Zm0-19.483h6.09v-17.641h-6.09Zm0-19.485h6.09v-17.65h-6.09Zm0-19.484h6.09v-17.649h-6.09Zm0-19.49h6.09v-17.643h-6.09Zm0-19.488h6.09v-17.643h-6.09Zm0-19.484h6.09V1102.58h-6.09Zm0-19.492h6.09v-17.64h-6.09Zm0-19.483h6.09V1063.6h-6.09Zm0-19.488h6.09v-17.649h-6.09Zm0-19.488h6.09v-17.645h-6.09Zm0-19.488h6.09v-17.643h-6.09Zm0-19.486h6.09V985.655h-6.09Zm0-19.488h6.09V966.167h-6.09Zm0-19.483h6.09V946.679h-6.09Zm0-19.493h6.09V927.193h-6.09Zm0-19.482h6.09V907.707h-6.09ZM949.6,1237.139h6.1V1219.5h-6.1Zm0-19.483h6.1v-17.641h-6.1Zm0-19.485h6.1v-17.65h-6.1Zm0-19.484h6.1v-17.649h-6.1Zm0-19.49h6.1v-17.643h-6.1Zm0-19.488h6.1v-17.643h-6.1Zm0-19.484h6.1V1102.58h-6.1Zm0-19.492h6.1v-17.64h-6.1Zm0-19.483h6.1V1063.6h-6.1Zm0-19.488h6.1v-17.649h-6.1Zm0-19.488h6.1v-17.645h-6.1Zm0-19.488h6.1v-17.643h-6.1Zm0-19.486h6.1V985.655h-6.1Zm0-19.488h6.1V966.167h-6.1Zm0-19.483h6.1V946.679h-6.1Zm0-19.493h6.1V927.193h-6.1Zm0-19.482h6.1V907.707h-6.1Zm-7.937,311.785h6.094V1219.5h-6.094Zm0-19.483h6.094v-17.641h-6.094Zm0-19.485h6.094v-17.65h-6.094Zm0-19.484h6.094v-17.649h-6.094Zm0-19.49h6.094v-17.643h-6.094Zm0-19.488h6.094v-17.643h-6.094Zm0-19.484h6.094V1102.58h-6.094Zm0-19.492h6.094v-17.64h-6.094Zm0-19.483h6.094V1063.6h-6.094Zm0-19.488h6.094v-17.649h-6.094Zm0-19.488h6.094v-17.645h-6.094Zm0-19.488h6.094v-17.643h-6.094Zm0-19.486h6.094V985.655h-6.094Zm0-19.488h6.094V966.167h-6.094Zm0-19.483h6.094V946.679h-6.094Zm0-19.493h6.094V927.193h-6.094Zm0-19.482h6.094V907.707h-6.094Zm-7.938,311.785h6.1V1219.5h-6.1Zm0-19.483h6.1v-17.641h-6.1Zm0-19.485h6.1v-17.65h-6.1Zm0-19.484h6.1v-17.649h-6.1Zm0-19.49h6.1v-17.643h-6.1Zm0-19.488h6.1v-17.643h-6.1Zm0-19.484h6.1V1102.58h-6.1Zm0-19.492h6.1v-17.64h-6.1Zm0-19.483h6.1V1063.6h-6.1Zm0-19.488h6.1v-17.649h-6.1Zm0-19.488h6.1v-17.645h-6.1Zm0-19.488h6.1v-17.643h-6.1Zm0-19.486h6.1V985.655h-6.1Zm0-19.488h6.1V966.167h-6.1Zm0-19.483h6.1V946.679h-6.1Zm0-19.493h6.1V927.193h-6.1Zm-7.937,292.3h6.092V1219.5h-6.092Zm0-19.483h6.092v-17.641h-6.092Zm0-19.485h6.092v-17.65h-6.092Zm0-19.484h6.092v-17.649h-6.092Zm0-19.49h6.092v-17.643h-6.092Zm0-19.488h6.092v-17.643h-6.092Zm0-19.484h6.092V1102.58h-6.092Zm0-19.492h6.092v-17.64h-6.092Zm0-19.483h6.092V1063.6h-6.092Zm0-19.488h6.092v-17.649h-6.092Zm0-19.488h6.092v-17.645h-6.092Zm0-19.488h6.092v-17.643h-6.092Zm0-19.486h6.092V985.655h-6.092Zm0-19.488h6.092V966.167h-6.092Zm0-19.483h6.092V946.679h-6.092Zm0-19.493h6.092V927.193h-6.092Zm-7.937,292.3h6.092V1219.5h-6.092Zm0-19.483h6.092v-17.641h-6.092Zm0-19.485h6.092v-17.65h-6.092Zm0-19.484h6.092v-17.649h-6.092Zm0-19.49h6.092v-17.643h-6.092Zm0-19.488h6.092v-17.643h-6.092Zm0-19.484h6.092V1102.58h-6.092Zm0-19.492h6.092v-17.64h-6.092Zm0-19.483h6.092V1063.6h-6.092Zm0-19.488h6.092v-17.649h-6.092Zm0-19.488h6.092v-17.645h-6.092Zm0-19.488h6.092v-17.643h-6.092Zm0-19.486h6.092V985.655h-6.092Zm0-19.488h6.092V966.167h-6.092Zm0-19.483h6.092V946.679h-6.092Zm-7.936,272.809H916V1219.5h-6.09Zm0-19.483H916v-17.641h-6.09Zm0-19.485H916v-17.65h-6.09Zm0-19.484H916v-17.649h-6.09Zm0-19.49H916v-17.643h-6.09Zm0-19.488H916v-17.643h-6.09Zm0-19.484H916V1102.58h-6.09Zm0-19.492H916v-17.64h-6.09Zm0-19.483H916V1063.6h-6.09Zm0-19.488H916v-17.649h-6.09Zm0-19.488H916v-17.645h-6.09Zm0-19.488H916v-17.643h-6.09Zm0-19.486H916V985.655h-6.09Zm0-19.488H916V966.167h-6.09Zm0-19.483H916V946.679h-6.09Zm-7.94,272.809h6.094V1219.5H901.97Zm0-19.483h6.094v-17.641H901.97Zm0-19.485h6.094v-17.65H901.97Zm0-19.484h6.094v-17.649H901.97Zm0-19.49h6.094v-17.643H901.97Zm0-19.488h6.094v-17.643H901.97Zm0-19.484h6.094V1102.58H901.97Zm0-19.492h6.094v-17.64H901.97Zm0-19.483h6.094V1063.6H901.97Zm0-19.488h6.094v-17.649H901.97Zm0-19.488h6.094v-17.645H901.97Zm0-19.488h6.094v-17.643H901.97Zm0-19.486h6.094V985.655H901.97Zm0-19.488h6.094V966.167H901.97Zm-7.938,253.326h6.092V1219.5h-6.092Zm0-19.483h6.092v-17.641h-6.092Zm0-19.485h6.092v-17.65h-6.092Zm0-19.484h6.092v-17.649h-6.092Zm0-19.49h6.092v-17.643h-6.092Zm0-19.488h6.092v-17.643h-6.092Zm0-19.484h6.092V1102.58h-6.092Zm0-19.492h6.092v-17.64h-6.092Zm0-19.483h6.092V1063.6h-6.092Zm0-19.488h6.092v-17.649h-6.092Zm0-19.488h6.092v-17.645h-6.092Zm0-19.488h6.092v-17.643h-6.092Zm0-19.486h6.092V985.655h-6.092Zm0-19.488h6.092V966.167h-6.092Z" transform="translate(-887.512 -861.595)" fill="#d9d9d9"/>
    <g id="Group_650" data-name="Group 650" transform="translate(0 118.664)" opacity="0.15" style="mix-blend-mode: color-dodge;isolation: isolate">
      <path id="Path_9517" data-name="Path 9517" d="M887.513,997.35V966.12l97.312,79.947v31.225Z" transform="translate(-887.513 -897.776)" fill="#88e2e0"/>
      <path id="Path_9518" data-name="Path 9518" d="M984.824,1009.939v53.04L887.513,983.03V928.515Z" transform="translate(-887.513 -928.515)" fill="#88e2e0"/>
    </g>
  </g>
</svg>
