<svg xmlns="http://www.w3.org/2000/svg" width="612.728" height="231" viewBox="0 0 612.728 231">
  <g id="Group_634" data-name="Group 634" transform="translate(0.001)">
    <path id="Path_9439" data-name="Path 9439" d="M4778.31,2626.828H4246.1l21.606-79.815h510.6Z" transform="translate(-4213.105 -2446.596)" fill="#657285"/>
    <g id="Group_630" data-name="Group 630" transform="translate(-0.001 21.913)">
      <g id="Group_629" data-name="Group 629" transform="translate(169.933 0.373)">
        <path id="Path_9440" data-name="Path 9440" d="M5004.605,2342.5v0l-.044.005A.366.366,0,0,1,5004.605,2342.5Z" transform="translate(-4851.746 -2342.495)" fill="#131f2d"/>
        <g id="Group_628" data-name="Group 628" transform="translate(0 4.271)">
          <path id="Path_9441" data-name="Path 9441" d="M4604.545,2409.58h0q11.974-.448,24.886-.458s47.668-41.368,102.813-55.448C4675.548,2367.675,4604.545,2409.58,4604.545,2409.58Z" transform="translate(-4604.545 -2353.674)" fill="#131f2d"/>
        </g>
      </g>
      <path id="Path_9442" data-name="Path 9442" d="M4761.4,2433.124v-45.676s-53.582-6.122-85.99-17.86c-75.017-27.558-115.335-28.068-183.465-28.068-51.726,0-104.111,34.64-126.342,51.317a44.852,44.852,0,0,1-25.941,8.937c-81.828,1.792-132.409,18.127-157.53,29.151a32.41,32.41,0,0,0-19.349,29.69v15.377h0a3.061,3.061,0,0,0-3.062,3.062v25.516a3.061,3.061,0,0,0,3.062,3.062h48.827a57.414,57.414,0,1,1,100.313,0h300.425a57.41,57.41,0,1,1,100.315,0h11.994c41.519,0,47.4-42.456,47.79-63.27A11.042,11.042,0,0,0,4761.4,2433.124Z" transform="translate(-4159.72 -2341.519)" fill="#f94f36"/>
      <path id="Path_9443" data-name="Path 9443" d="M4801.633,2359.258c-47.4,12-98.217,52.993-98.217,52.993l134.521-2.878a13.818,13.818,0,0,0,12.249-8.008l20.615-44.484h-49.883A78.645,78.645,0,0,0,4801.633,2359.258Z" transform="translate(-4495.712 -2351.01)" fill="#131f2d"/>
      <path id="Path_9444" data-name="Path 9444" d="M5131.044,2359.552l-18.892,43.268a5.038,5.038,0,0,0,4.618,7.05c19.057.011,69.1-.7,97.9-7.913a9.1,9.1,0,0,0,4.095-15.38C5207.063,2375.351,5181.608,2359.552,5131.044,2359.552Z" transform="translate(-4748.038 -2352.663)" fill="#131f2d"/>
      <path id="Path_9445" data-name="Path 9445" d="M4176.9,2552.571h19.66s32.143-30,83.724-38.507C4280.279,2514.064,4184.99,2524.563,4176.9,2552.571Z" transform="translate(-4170.337 -2448.148)" fill="#fff"/>
      <path id="Path_9446" data-name="Path 9446" d="M5680.137,2514.851h-5.2a7.533,7.533,0,0,1-6.82-4.307c-3.01-6.362-9.613-18.448-19.75-27.039a5.524,5.524,0,0,1,3.572-9.737h28.2Z" transform="translate(-5078.458 -2423.247)" fill="#e41a1a"/>
      <path id="Path_9447" data-name="Path 9447" d="M5012.728,2519.075h-26.146a2.613,2.613,0,0,1-2.611-2.614h0a2.613,2.613,0,0,1,2.611-2.615h26.146a2.616,2.616,0,0,1,2.619,2.615h0A2.617,2.617,0,0,1,5012.728,2519.075Z" transform="translate(-4669.088 -2448.013)" fill="#131f2d"/>
      <path id="Path_9448" data-name="Path 9448" d="M5315.3,2519.075h-26.146a2.615,2.615,0,0,1-2.613-2.614h0a2.614,2.614,0,0,1,2.613-2.615H5315.3a2.617,2.617,0,0,1,2.619,2.615h0A2.618,2.618,0,0,1,5315.3,2519.075Z" transform="translate(-4856.07 -2448.013)" fill="#131f2d"/>
      <path id="Path_9449" data-name="Path 9449" d="M4902.3,2571.956H4666.565a12.5,12.5,0,0,0-10.678,18.993l15.182,24.955a10.94,10.94,0,0,0,15.7,3.231C4706.92,2604.764,4764.978,2574.951,4902.3,2571.956Z" transform="translate(-4465.203 -2483.922)" fill="#fff" opacity="0.28"/>
    </g>
    <path id="Path_9450" data-name="Path 9450" d="M5041.9,2284.159H5029.8a3.747,3.747,0,0,0-3.526,2.48l-7.125,19.809h26.491v-18.542A3.748,3.748,0,0,0,5041.9,2284.159Z" transform="translate(-4690.832 -2284.159)" fill="#f1a34f"/>
    <path id="Path_9451" data-name="Path 9451" d="M5062.624,2319.759V2306.21h-5.187a8.463,8.463,0,0,0-7.971,5.617l-2.83,7.932Z" transform="translate(-4707.814 -2297.785)" fill="#131f2d"/>
    <g id="Group_632" data-name="Group 632" transform="translate(432.634 89.762)">
      <circle id="Ellipse_48" data-name="Ellipse 48" cx="49.935" cy="49.935" r="49.935" transform="translate(0 70.619) rotate(-45)" fill="#131f2d"/>
      <path id="Path_9452" data-name="Path 9452" d="M5457.948,2653.934A30.938,30.938,0,1,1,5427.01,2623,30.94,30.94,0,0,1,5457.948,2653.934Zm-26.7-14.942a15.5,15.5,0,0,1,6.2,3.435l10.722-6.624a27.831,27.831,0,0,0-16.917-9.417Zm-25.395-3.188,10.722,6.624a15.472,15.472,0,0,1,6.2-3.435v-12.605A27.821,27.821,0,0,0,5405.855,2635.8Zm6.192,22.307a15.563,15.563,0,0,1,.041-8.494L5401.373,2643a27.927,27.927,0,0,0-.06,21.741Zm10.725,10.768a15.512,15.512,0,0,1-6.3-3.536l-10.711,6.615a27.832,27.832,0,0,0,17.012,9.525Zm4.237-7.919a7.025,7.025,0,1,0-7.026-7.025A7.027,7.027,0,0,0,5427.01,2660.958Zm21.248,11-10.707-6.615a15.525,15.525,0,0,1-6.3,3.536v12.6A27.831,27.831,0,0,0,5448.258,2671.957Zm4.447-7.218a27.944,27.944,0,0,0-.055-21.741l-10.72,6.619a15.514,15.514,0,0,1,.041,8.494Z" transform="translate(-5356.395 -2583.315)" fill="#feb500"/>
    </g>
    <g id="Group_633" data-name="Group 633" transform="translate(52.157 110.519)">
      <ellipse id="Ellipse_49" data-name="Ellipse 49" cx="49.935" cy="49.935" rx="49.935" ry="49.935" transform="translate(0)" fill="#131f2d"/>
      <path id="Path_9453" data-name="Path 9453" d="M4407.856,2654.126a30.939,30.939,0,1,1-30.938-30.939A30.94,30.94,0,0,1,4407.856,2654.126Zm-26.7-14.943a15.5,15.5,0,0,1,6.194,3.434l10.723-6.622a27.818,27.818,0,0,0-16.917-9.418ZM4355.761,2636l10.722,6.622a15.534,15.534,0,0,1,6.194-3.434v-12.606A27.821,27.821,0,0,0,4355.761,2636Zm6.194,22.307a15.488,15.488,0,0,1,.041-8.493l-10.718-6.621a27.948,27.948,0,0,0-.059,21.743Zm10.722,10.766a15.485,15.485,0,0,1-6.3-3.536l-10.711,6.615a27.833,27.833,0,0,0,17.009,9.528Zm4.24-7.917a7.025,7.025,0,1,0-7.023-7.024A7.026,7.026,0,0,0,4376.917,2661.15Zm21.248,11-10.708-6.615a15.5,15.5,0,0,1-6.3,3.536v12.606A27.827,27.827,0,0,0,4398.166,2672.146Zm4.447-7.215a27.925,27.925,0,0,0-.061-21.743l-10.714,6.621a15.487,15.487,0,0,1,.037,8.493Z" transform="translate(-4326.981 -2604.19)" fill="#feb500"/>
    </g>
  </g>
</svg>
