<svg xmlns="http://www.w3.org/2000/svg" width="96" height="96" viewBox="0 0 96 96">
  <g id="Group_2952" data-name="Group 2952" transform="translate(-931 -132)">
    <circle id="Ellipse_136" data-name="Ellipse 136" cx="48" cy="48" r="48" transform="translate(931 132)" fill="#f94f36"/>
    <path id="Icon_metro-cross" data-name="Icon metro-cross" d="M28.417,22.884h0L20.5,14.97l7.913-7.913h0a.817.817,0,0,0,0-1.153L24.679,2.166a.817.817,0,0,0-1.153,0h0l-7.913,7.913L7.7,2.166h0a.817.817,0,0,0-1.153,0L2.809,5.9a.817.817,0,0,0,0,1.153h0l7.913,7.913L2.809,22.884h0a.817.817,0,0,0,0,1.153l3.738,3.738a.817.817,0,0,0,1.153,0h0l7.913-7.913,7.913,7.913h0a.817.817,0,0,0,1.152,0l3.738-3.738a.817.817,0,0,0,0-1.153Z" transform="translate(963.388 165.03)" fill="#fff"/>
  </g>
</svg>
