<svg xmlns="http://www.w3.org/2000/svg" width="96" height="96" viewBox="0 0 96 96">
  <g id="Group_2876" data-name="Group 2876" transform="translate(-635 -60)">
    <circle id="Ellipse_136" data-name="Ellipse 136" cx="48" cy="48" r="48" transform="translate(635 60)" fill="#f94f36"/>
    <path id="Icon_awesome-check" data-name="Icon awesome-check" d="M11.906,30.2.513,18.812a1.753,1.753,0,0,1,0-2.479l2.479-2.479a1.753,1.753,0,0,1,2.479,0l7.675,7.675L29.584,5.091a1.753,1.753,0,0,1,2.479,0l2.479,2.479a1.753,1.753,0,0,1,0,2.479L14.385,30.2A1.753,1.753,0,0,1,11.906,30.2Z" transform="translate(665.473 90.352)" fill="#fff"/>
  </g>
</svg>
