<svg width="29" height="19" viewBox="0 0 29 19" fill="none" xmlns="http://www.w3.org/2000/svg">
<path d="M15.6758 12.3789C15.7083 11.0117 15.8548 9.79102 16.1152 8.7168C16.3757 7.61003 16.75 6.58464 17.2383 5.64062C17.7266 4.66406 18.3288 3.7526 19.0449 2.90625C19.7611 2.02734 20.5749 1.13216 21.4863 0.220703L25.4902 2.07617C25.2298 2.36914 24.9694 2.71094 24.709 3.10156C24.4811 3.45964 24.237 3.89909 23.9766 4.41992C23.7161 4.94076 23.4883 5.52669 23.293 6.17773C24.0417 6.30794 24.7415 6.56836 25.3926 6.95898C26.0436 7.31706 26.597 7.77279 27.0527 8.32617C27.541 8.87956 27.9154 9.49805 28.1758 10.1816C28.4688 10.8652 28.6152 11.5977 28.6152 12.3789C28.6152 13.2904 28.4362 14.153 28.0781 14.9668C27.7526 15.748 27.2969 16.4316 26.7109 17.0176C26.125 17.6035 25.4251 18.0755 24.6113 18.4336C23.8301 18.7591 23 18.9219 22.1211 18.9219C21.2422 18.9219 20.4121 18.7591 19.6309 18.4336C18.8496 18.0755 18.166 17.6035 17.5801 17.0176C16.9941 16.4316 16.5221 15.748 16.1641 14.9668C15.8385 14.153 15.6758 13.2904 15.6758 12.3789ZM0.197266 12.3789C0.229818 11.0117 0.376302 9.79102 0.636719 8.7168C0.897135 7.61003 1.27148 6.58464 1.75977 5.64062C2.24805 4.66406 2.83398 3.7526 3.51758 2.90625C4.23372 2.02734 5.0638 1.13216 6.00781 0.220703L10.0117 2.07617C9.71875 2.36914 9.44206 2.71094 9.18164 3.10156C8.95378 3.45964 8.70964 3.89909 8.44922 4.41992C8.22135 4.94076 8.00977 5.52669 7.81445 6.17773C8.56315 6.30794 9.24674 6.56836 9.86523 6.95898C10.5163 7.31706 11.0697 7.77279 11.5254 8.32617C12.0137 8.87956 12.388 9.49805 12.6484 10.1816C12.9414 10.8652 13.0879 11.5977 13.0879 12.3789C13.0879 13.2904 12.9089 14.153 12.5508 14.9668C12.2253 15.748 11.7695 16.4316 11.1836 17.0176C10.5977 17.6035 9.91406 18.0755 9.13281 18.4336C8.35156 18.7591 7.50521 18.9219 6.59375 18.9219C5.71484 18.9219 4.88477 18.7591 4.10352 18.4336C3.32227 18.0755 2.63867 17.6035 2.05273 17.0176C1.49935 16.4316 1.04362 15.748 0.685547 14.9668C0.360026 14.153 0.197266 13.2904 0.197266 12.3789Z" fill="white" fill-opacity="0.3"/>
</svg>
